<svg xmlns="http://www.w3.org/2000/svg" version="1.1" xmlns:xlink="http://www.w3.org/1999/xlink" xmlns:svgjs="http://svgjs.com/svgjs" height="125.62280360724151" width="335.16999816894514"><defs id="SvgjsDefs1211"></defs><g id="SvgjsG1212" rel="mainfill" name="main_text" xmlns:name="main_text" transform="translate(80.24000000953657,-178.5985942290941)" fill="#ffffff"><path d="M21.49 240L23.93 237.56L23.93 227.65L21.49 225.18L6.71 225.18L6.71 220.24L19.02 220.24L19.02 222.71L23.93 222.71L23.93 217.80L21.49 215.29L4.20 215.29L1.76 217.80L1.76 228.39L4.20 230.15L19.02 230.15L19.02 235.06L6.71 235.06L6.71 232.62L1.76 232.62L1.76 237.56L4.20 240ZM32.40 235.06L32.40 220.24L44.72 220.24L44.72 235.06ZM47.19 240L49.62 237.56L49.62 217.80L47.19 215.29L29.89 215.29L27.46 217.80L27.46 237.56L29.89 240ZM72.88 240L75.32 237.56L75.32 232.62L70.41 232.62L70.41 235.06L58.09 235.06L58.09 220.24L70.41 220.24L70.41 222.71L75.32 222.71L75.32 217.80L72.88 215.29L55.59 215.29L53.15 217.80L53.15 237.56L55.59 240ZM83.44 240L83.44 215.29L78.49 215.29L78.49 240ZM91.55 227.68L91.55 225.21L96.46 220.24L103.87 220.24L103.87 227.68ZM91.55 240L91.55 232.62L103.87 232.62L103.87 240L108.78 240L108.78 215.29L93.99 215.29L86.61 222.74L86.61 240ZM112.31 215.29L112.31 240L133.27 240L133.27 235.06L117.25 235.06L117.25 215.29ZM140.33 227.68L140.33 225.21L145.24 220.24L152.65 220.24L152.65 227.68ZM140.33 240L140.33 232.62L152.65 232.62L152.65 240L157.55 240L157.55 215.29L142.76 215.29L135.39 222.74L135.39 240ZM166.02 227.68L166.02 220.24L178.34 220.24L178.34 227.68ZM166.02 240L166.02 232.62L180.81 232.62L183.25 230.15L183.25 217.80L180.81 215.29L161.08 215.29L161.08 240ZM191.36 227.68L191.36 220.24L203.68 220.24L203.68 227.68ZM191.36 240L191.36 232.62L206.15 232.62L208.59 230.15L208.59 217.80L206.15 215.29L186.42 215.29L186.42 240Z" fill="#ffffff" style="fill: rgb(255, 255, 255);"></path></g><g id="SvgjsG1213" rel="mainfill" name="slogan_text" xmlns:name="slogan_text" transform="translate(81.85999999940378,-155.03859667050034)" fill="#ffffff"><path d="M4.14 240L7.19 240L7.19 229.68L11.19 229.68L11.19 227.29L0.14 227.29L0.14 229.68L4.14 229.68ZM24.53 240.22C25.72 240.22 27.12 240.05 28.22 239.73L27.77 237.45C26.74 237.63 25.63 237.84 24.96 237.84C23.40 237.84 22.17 237.55 22.19 236.01L28.56 236.01L28.56 234.93C28.56 231.96 27.37 229.95 24.28 229.95C21.31 229.95 19.21 231.22 19.21 235.23C19.21 239.15 21.29 240.22 24.53 240.22ZM22.28 234.08C22.34 232.79 23.00 232.07 24.03 232.07C25.00 232.07 25.52 232.90 25.48 234.08ZM37.66 240L40.66 240L40.66 226.44L37.66 226.44ZM55.08 240.22C56.27 240.22 57.67 240.05 58.77 239.73L58.32 237.45C57.30 237.63 56.18 237.84 55.51 237.84C53.95 237.84 52.73 237.55 52.75 236.01L59.11 236.01L59.11 234.93C59.11 231.96 57.92 229.95 54.83 229.95C51.86 229.95 49.76 231.22 49.76 235.23C49.76 239.15 51.85 240.22 55.08 240.22ZM52.84 234.08C52.89 232.79 53.55 232.07 54.58 232.07C55.55 232.07 56.07 232.90 56.04 234.08ZM72.42 243.97C74.58 243.97 77.31 242.97 77.31 240.09L77.31 230.43C75.71 230.11 74.58 229.93 73.12 229.93C70.15 229.93 67.67 231.78 67.67 235.14C67.67 239.62 70.35 240.16 72.73 240.16C73.30 240.16 73.91 239.95 74.33 239.66L74.33 239.86C74.33 241.28 73.46 241.46 72.02 241.46C71.30 241.46 70.03 241.28 68.82 241.03L68.36 243.38C69.49 243.69 70.89 243.97 72.42 243.97ZM72.89 237.88C71.56 237.88 70.66 237.27 70.66 235.14C70.66 233.45 71.39 232.39 73.10 232.39C73.61 232.39 73.98 232.48 74.31 232.57L74.31 237.72C73.82 237.86 73.39 237.88 72.89 237.88ZM86.95 240L89.95 240L89.95 233.35C90.35 232.91 91.25 232.50 92.13 232.50C92.67 232.50 92.87 232.50 93.44 232.61L93.84 230.15C93.42 230.02 93.03 229.98 92.49 229.98C91.36 229.98 90.44 230.86 89.95 231.49L89.95 230.18L86.95 230.18ZM104.92 240.16C105.99 240.16 107.02 239.60 107.74 239.05C108.01 239.89 109.27 240.09 110.45 240.09C110.69 240.09 110.92 240.09 111.16 240.07L111.26 237.81C110.71 237.79 110.38 237.72 110.38 237.39L110.38 233.02C110.38 230.81 109.16 229.95 106.12 229.95C104.56 229.95 103.26 230.31 102.15 230.74L102.74 232.91C103.66 232.70 104.70 232.48 105.67 232.48C106.89 232.48 107.45 232.73 107.45 233.60L107.45 234.21L105.74 234.21C103.80 234.21 101.53 234.71 101.53 237.19C101.53 239.15 102.76 240.16 104.92 240.16ZM105.54 237.84C105.01 237.84 104.45 237.59 104.45 237.01C104.45 236.30 105.10 236.01 105.98 235.99L107.45 235.95L107.45 237.50C106.80 237.68 106.12 237.84 105.54 237.84ZM120.54 240L123.55 240L123.55 233.04C124.09 232.75 124.90 232.55 125.56 232.55C126.46 232.55 126.78 232.75 126.78 234.10L126.78 240L129.77 240L129.77 233.83C129.77 233.58 129.77 233.33 129.73 233.08C130.29 232.79 131.12 232.52 131.76 232.52C132.70 232.52 133.01 232.90 133.01 234.10L133.01 240L136.01 240L136.01 233.85C136.01 232.20 136.06 229.91 132.86 229.91C131.58 229.91 130.24 230.72 129.48 231.40C129.09 230.49 128.13 229.91 126.73 229.91C125.56 229.91 124.37 230.54 123.55 231.17L123.55 230.18L120.54 230.18ZM157.52 240L162.52 240C166.26 240 167.62 238.40 167.62 236.08C167.62 234.34 166.29 233.40 165.43 233.09L165.43 233.06C166.08 232.64 166.71 231.85 166.71 230.79C166.71 228.40 165.09 227.29 161.98 227.29L157.52 227.29ZM160.59 237.61L160.59 234.59L161.92 234.59C163.69 234.59 164.57 235.00 164.57 236.15C164.57 237.18 163.76 237.61 162.14 237.61ZM160.59 232.50L160.59 229.62L161.53 229.62C162.97 229.62 163.69 230.06 163.69 231.13C163.69 232.27 163.02 232.50 161.69 232.50ZM176.72 240L179.73 240L179.73 233.35C180.12 232.91 181.02 232.50 181.90 232.50C182.44 232.50 182.64 232.50 183.22 232.61L183.61 230.15C183.20 230.02 182.80 229.98 182.26 229.98C181.13 229.98 180.21 230.86 179.73 231.49L179.73 230.18L176.72 230.18ZM196.29 240.22C199.31 240.22 201.50 238.44 201.50 235.09C201.50 231.89 199.94 229.93 196.45 229.93C193.34 229.93 191.31 231.93 191.31 235.18C191.31 238.26 193.05 240.22 196.29 240.22ZM196.43 237.82C194.83 237.82 194.33 236.80 194.33 235.11C194.33 233.51 194.78 232.30 196.40 232.30C198.05 232.30 198.45 233.51 198.45 235.09C198.45 236.76 198.05 237.82 196.43 237.82ZM210.60 240L213.61 240L213.61 236.01L215.35 238.29C216.61 239.96 217.96 240.14 219.52 240.22L219.87 237.95C218.62 237.63 218.05 237.09 217.37 236.31L215.96 234.71L219.54 230.20L216.32 230.20L213.61 233.85L213.61 226.44L210.60 226.44ZM233.30 240.22C234.49 240.22 235.89 240.05 236.99 239.73L236.54 237.45C235.51 237.63 234.40 237.84 233.73 237.84C232.17 237.84 230.94 237.55 230.96 236.01L237.33 236.01L237.33 234.93C237.33 231.96 236.14 229.95 233.05 229.95C230.08 229.95 227.98 231.22 227.98 235.23C227.98 239.15 230.06 240.22 233.30 240.22ZM231.05 234.08C231.11 232.79 231.77 232.07 232.80 232.07C233.77 232.07 234.29 232.90 234.25 234.08ZM246.43 240L249.43 240L249.43 233.35C249.83 232.91 250.73 232.50 251.61 232.50C252.15 232.50 252.34 232.50 252.92 232.61L253.31 230.15C252.90 230.02 252.51 229.98 251.97 229.98C250.83 229.98 249.92 230.86 249.43 231.49L249.43 230.18L246.43 230.18Z" fill="#ffffff" style="fill: rgb(255, 255, 255);"></path></g><g id="SvgjsG1214" rel="mainfill" name="symbol" xmlns:name="symbol_mainfill" transform="translate(-36.28973295360796,-6.97904464484675) scale(1.39580892896935)" fill="#ffffff"><path d="M71.995,64.9c-0.022-0.229-0.125-0.444-0.288-0.607l-7-7c-0.07-0.07-0.156-0.114-0.24-0.16C65,48.794,65,39.415,65,31  C65,13.621,50.641,5.215,50.496,5.132c-0.308-0.176-0.685-0.176-0.992,0c-0.139,0.079-13.154,7.711-14.398,23.444  c-0.104,0.218-0.117,0.459-0.055,0.688C35.02,29.833,35,30.411,35,31c0,1.308,0,2.641,0.002,3.988c0,0.008,0,0.016,0,0.023  c0.004,1.921,0.011,3.874,0.027,5.837c-0.017,0.106-0.016,0.209,0.002,0.315c0.018,1.799,0.042,3.605,0.08,5.402  c-0.14,0.287-0.131,0.616,0.021,0.899c0.078,3.298,0.201,6.556,0.4,9.667c-0.084,0.046-0.17,0.09-0.24,0.16l-7,7  c-0.163,0.163-0.265,0.378-0.288,0.607l-2,20c-0.036,0.363,0.127,0.717,0.428,0.923C26.603,85.94,26.801,86,27,86  c0.153,0,0.306-0.035,0.447-0.105l12.631-6.315c0.788,10.348,9.066,15.089,9.436,15.295C49.666,94.958,49.832,95,50,95  s0.334-0.042,0.486-0.126c0.369-0.206,8.647-4.947,9.436-15.295l12.631,6.315C72.694,85.965,72.848,86,73,86  c0.199,0,0.397-0.06,0.567-0.177c0.3-0.206,0.464-0.56,0.428-0.923L71.995,64.9z M50,7.182C52.438,8.792,63,16.604,63,31  c0,16.415,0,38.775-4.533,46H49c0-0.256-0.098-0.512-0.293-0.707c-0.391-0.391-1.023-0.391-1.414,0L46.586,77h-3.172l3.293-3.293  c0.391-0.391,0.391-1.023,0-1.414s-1.023-0.391-1.414,0l-4.104,4.104c-0.377-0.701-0.719-1.517-1.031-2.428  c0.2-0.032,0.395-0.107,0.549-0.262l5-5c0.391-0.391,0.391-1.023,0-1.414s-1.023-0.391-1.414,0l-4.721,4.721  c-0.213-0.811-0.408-1.673-0.588-2.584l4.723-4.723c0.391-0.391,0.391-1.023,0-1.414s-1.023-0.391-1.414,0l-3.729,3.729  c-0.139-0.898-0.266-1.829-0.381-2.791l4.523-4.523c0.391-0.391,0.391-1.023,0-1.414s-1.023-0.391-1.414,0l-3.385,3.385  c-0.092-0.959-0.176-1.939-0.25-2.938c0.016-0.013,0.035-0.019,0.049-0.032l5-5c0.391-0.391,0.391-1.023,0-1.414  s-1.023-0.391-1.414,0l-3.809,3.809c-0.063-1.041-0.115-2.098-0.162-3.164c0.14-0.048,0.273-0.119,0.385-0.23l4-4  c0.391-0.391,0.391-1.023,0-1.414s-1.023-0.391-1.414,0l-3.07,3.07c-0.034-1.023-0.064-2.052-0.089-3.083l4.573-4.573  c0.391-0.391,0.391-1.023,0-1.414s-1.023-0.391-1.414,0l-3.215,3.215c-0.018-1.047-0.031-2.091-0.041-3.13l4.67-4.67  c0.391-0.391,0.391-1.023,0-1.414s-1.023-0.391-1.414,0l-3.278,3.278c-0.006-1.065-0.009-2.12-0.012-3.16l4.704-4.704  c0.391-0.391,0.391-1.023,0-1.414s-1.023-0.391-1.414,0L37,32.586c0-0.534,0-1.063,0-1.586c0-0.557,0.021-1.1,0.052-1.638  l4.655-4.655c0.391-0.391,0.391-1.023,0-1.414s-1.023-0.391-1.414,0l-2.876,2.876c0.271-1.55,0.661-3.003,1.142-4.363  c0.049-0.034,0.104-0.055,0.148-0.099l5-5c0.391-0.391,0.391-1.023,0-1.414s-1.023-0.391-1.414,0l-1.183,1.183  C44.357,11.2,48.572,8.125,50,7.182z M51.956,79c-0.163,2.002-0.815,3.852-1.956,5.518c-1.141-1.667-1.793-3.517-1.956-5.518H51.956  z M35.719,59.695c0.107,1.337,0.229,2.644,0.371,3.904c-0.141,0.319-0.094,0.688,0.117,0.979c0.674,5.502,1.727,10.103,3.365,13.018  l-9.508,4.754l3.643-3.643c0.391-0.391,0.391-1.023,0-1.414s-1.023-0.391-1.414,0l-3.908,3.908l0.352-3.524l4.97-4.97  c0.391-0.391,0.391-1.023,0-1.414s-1.023-0.391-1.414,0l-3.241,3.241l0.363-3.634c0.104-0.047,0.206-0.107,0.292-0.193l4-4  c0.391-0.391,0.391-1.023,0-1.414s-1.023-0.391-1.414,0l-2.575,2.574l0.241-2.412L35.719,59.695z M50.004,92.824  c-1.727-1.151-7.513-5.622-7.961-13.824h4.01c0.258,3.58,1.83,6.205,3.182,7.812c0.189,0.226,0.471,0.356,0.766,0.356  s0.575-0.131,0.766-0.356c1.352-1.606,2.924-4.229,3.182-7.812h4.01C57.516,87.271,51.76,91.674,50.004,92.824z M61.355,78.059  l4.352-4.352c0.391-0.391,0.391-1.023,0-1.414s-1.023-0.391-1.414,0l-2.699,2.699c0.467-1.298,0.873-2.77,1.221-4.393l4.893-4.893  c0.391-0.391,0.391-1.023,0-1.414s-1.023-0.391-1.414,0l-2.854,2.854c0.355-2.306,0.63-4.812,0.842-7.451l5.76,5.76l1.783,17.839  L61.355,78.059z" fill="#ffffff" style="fill: rgb(255, 255, 255);"></path><path d="M50,37c3.859,0,7-3.14,7-7s-3.141-7-7-7s-7,3.14-7,7S46.141,37,50,37z M50,25c2.757,0,5,2.243,5,5s-2.243,5-5,5  s-5-2.243-5-5S47.243,25,50,25z" fill="#ffffff" style="fill: rgb(255, 255, 255);"></path><path d="M50,40c-3.859,0-7,3.14-7,7c0,3.859,3.141,7,7,7s7-3.141,7-7C57,43.14,53.859,40,50,40z M50,52c-2.757,0-5-2.243-5-5  s2.243-5,5-5s5,2.243,5,5S52.757,52,50,52z" fill="#ffffff" style="fill: rgb(255, 255, 255);"></path></g></svg>