<svg xmlns="http://www.w3.org/2000/svg" version="1.1" xmlns:xlink="http://www.w3.org/1999/xlink" xmlns:svgjs="http://svgjs.com/svgjs" height="200.41279689337463" width="265.58001708984375"><defs id="SvgjsDefs1746"></defs><g id="SvgjsG1747" rel="mainfill" name="main_text" xmlns:name="main_text" transform="translate(2.575004816055298,-68.78720005486755)" fill="#ffffff"><path d="M26.61 240L29.63 236.98L29.63 224.71L26.61 221.65L8.30 221.65L8.30 215.53L23.55 215.53L23.55 218.59L29.63 218.59L29.63 212.51L26.61 209.41L5.20 209.41L2.18 212.51L2.18 225.62L5.20 227.81L23.55 227.81L23.55 233.88L8.30 233.88L8.30 230.87L2.18 230.87L2.18 236.98L5.20 240ZM40.11 233.88L40.11 215.53L55.36 215.53L55.36 233.88ZM58.42 240L61.44 236.98L61.44 212.51L58.42 209.41L37.01 209.41L34.00 212.51L34.00 236.98L37.01 240ZM90.24 240L93.25 236.98L93.25 230.87L87.18 230.87L87.18 233.88L71.93 233.88L71.93 215.53L87.18 215.53L87.18 218.59L93.25 218.59L93.25 212.51L90.24 209.41L68.82 209.41L65.81 212.51L65.81 236.98L68.82 240ZM103.30 240L103.30 209.41L97.18 209.41L97.18 240ZM113.35 224.75L113.35 221.69L119.43 215.53L128.60 215.53L128.60 224.75ZM113.35 240L113.35 230.87L128.60 230.87L128.60 240L134.68 240L134.68 209.41L116.37 209.41L107.23 218.63L107.23 240ZM139.05 209.41L139.05 240L165.00 240L165.00 233.88L145.16 233.88L145.16 209.41ZM173.74 224.75L173.74 221.69L179.82 215.53L188.99 215.53L188.99 224.75ZM173.74 240L173.74 230.87L188.99 230.87L188.99 240L195.07 240L195.07 209.41L176.76 209.41L167.62 218.63L167.62 240ZM205.55 224.75L205.55 215.53L220.80 215.53L220.80 224.75ZM205.55 240L205.55 230.87L223.86 230.87L226.88 227.81L226.88 212.51L223.86 209.41L199.44 209.41L199.44 240ZM236.93 224.75L236.93 215.53L252.18 215.53L252.18 224.75ZM236.93 240L236.93 230.87L255.24 230.87L258.25 227.81L258.25 212.51L255.24 209.41L230.81 209.41L230.81 240Z" fill="#ffffff" style="fill: rgb(255, 255, 255);"></path></g><g id="SvgjsG1748" rel="mainfill" name="slogan_text" xmlns:name="slogan_text" transform="translate(-0.6100000143051147,-44.36720188592224)" fill="#ffffff"><path d="M6.00 240L4.90 240L4.90 226.55L0.61 226.55L0.61 225.58L10.31 225.58L10.31 226.55L6.00 226.55L6.00 240ZM21.45 235.34Q21.45 237.22 22.25 238.21Q23.06 239.19 24.64 239.19Q25.51 239.19 26.10 238.92Q26.70 238.64 27.33 238.01L28.10 238.62Q27.74 238.99 27.36 239.27Q26.99 239.55 26.57 239.75Q26.15 239.94 25.67 240.03Q25.18 240.12 24.57 240.12Q22.55 240.12 21.49 238.85Q20.42 237.57 20.42 235.12Q20.42 232.73 21.45 231.42Q22.49 230.11 24.33 230.11Q26.18 230.11 27.21 231.36Q28.24 232.61 28.24 234.87L28.24 235.34L21.45 235.34M27.21 234.51Q27.19 234.17 27.17 233.91Q27.15 233.66 27.12 233.46Q27.09 233.25 27.03 233.07Q26.97 232.89 26.86 232.67Q26.54 231.90 25.86 231.46Q25.18 231.03 24.33 231.03Q23.48 231.03 22.80 231.46Q22.12 231.90 21.80 232.67Q21.72 232.91 21.66 233.09Q21.60 233.27 21.57 233.47Q21.54 233.66 21.51 233.90Q21.47 234.15 21.45 234.51L27.21 234.51ZM42.00 240Q40.78 240 40.21 239.31Q39.65 238.62 39.65 237.47L39.65 225.58L40.68 225.58L40.68 237.45Q40.68 238.30 40.99 238.69Q41.31 239.09 42.18 239.09L42.89 239.09L42.89 240L42.00 240L42.00 240ZM54.07 235.34Q54.07 237.22 54.87 238.21Q55.67 239.19 57.25 239.19Q58.12 239.19 58.72 238.92Q59.32 238.64 59.95 238.01L60.72 238.62Q60.35 238.99 59.98 239.27Q59.60 239.55 59.19 239.75Q58.77 239.94 58.29 240.03Q57.80 240.12 57.19 240.12Q55.17 240.12 54.10 238.85Q53.04 237.57 53.04 235.12Q53.04 232.73 54.07 231.42Q55.11 230.11 56.95 230.11Q58.79 230.11 59.83 231.36Q60.86 232.61 60.86 234.87L60.86 235.34L54.07 235.34M59.83 234.51Q59.81 234.17 59.79 233.91Q59.76 233.66 59.73 233.46Q59.70 233.25 59.64 233.07Q59.58 232.89 59.48 232.67Q59.16 231.90 58.48 231.46Q57.80 231.03 56.95 231.03Q56.10 231.03 55.42 231.46Q54.74 231.90 54.42 232.67Q54.34 232.91 54.27 233.09Q54.21 233.27 54.18 233.47Q54.15 233.66 54.12 233.90Q54.09 234.15 54.07 234.51L59.83 234.51ZM79.32 240.55Q79.32 241.46 79.05 242.24Q78.79 243.02 78.27 243.59Q77.76 244.15 77.02 244.47Q76.28 244.78 75.32 244.78Q74.78 244.78 74.35 244.71Q73.93 244.64 73.55 244.48Q73.18 244.32 72.83 244.07Q72.49 243.83 72.10 243.48L72.79 242.80Q73.08 243.06 73.34 243.26Q73.60 243.46 73.89 243.60Q74.17 243.73 74.51 243.80Q74.86 243.87 75.32 243.87Q76.09 243.87 76.65 243.62Q77.21 243.36 77.57 242.91Q77.94 242.45 78.11 241.83Q78.28 241.22 78.28 240.49L78.28 238.74Q77.63 239.59 76.93 239.86Q76.24 240.12 75.38 240.12Q74.62 240.12 74.00 239.89Q73.38 239.66 72.99 239.27Q72.24 238.52 71.99 237.40Q71.74 236.27 71.74 235.12Q71.74 233.96 71.99 232.84Q72.24 231.71 72.99 230.96Q73.38 230.58 74.00 230.35Q74.62 230.11 75.38 230.11Q76.24 230.11 76.93 230.38Q77.63 230.64 78.28 231.49L78.28 230.24L79.32 230.24L79.32 240.55M78.28 235.12Q78.28 234.37 78.19 233.63Q78.10 232.89 77.81 232.31Q77.51 231.73 76.97 231.38Q76.42 231.03 75.53 231.03Q74.64 231.03 74.09 231.38Q73.54 231.73 73.25 232.31Q72.95 232.89 72.86 233.63Q72.77 234.37 72.77 235.12Q72.77 235.89 72.86 236.62Q72.95 237.35 73.25 237.92Q73.54 238.50 74.09 238.86Q74.64 239.21 75.53 239.21Q76.42 239.21 76.97 238.86Q77.51 238.50 77.81 237.92Q78.10 237.35 78.19 236.62Q78.28 235.89 78.28 235.12ZM96.84 231.79Q96.39 231.35 96.00 231.19Q95.60 231.03 95.00 231.03Q94.37 231.03 93.88 231.27Q93.40 231.51 93.06 231.92Q92.73 232.32 92.55 232.86Q92.38 233.40 92.38 233.98L92.38 240L91.35 240L91.35 230.24L92.38 230.24L92.38 231.53Q92.81 230.84 93.59 230.48Q94.37 230.11 95.24 230.11Q95.95 230.11 96.51 230.32Q97.06 230.52 97.59 231.05L96.84 231.79L96.84 231.79ZM113.47 239.03Q112.84 239.66 112.19 239.89Q111.53 240.12 110.49 240.12Q109.40 240.12 108.74 239.92Q108.08 239.72 107.62 239.23Q107.27 238.89 107.09 238.38Q106.91 237.87 106.91 237.33Q106.91 235.99 107.81 235.25Q108.71 234.51 110.31 234.51L113.47 234.51L113.47 233.42Q113.47 232.24 112.85 231.63Q112.24 231.03 110.72 231.03Q109.68 231.03 109.09 231.31Q108.49 231.59 108.02 232.26L107.27 231.61Q107.90 230.74 108.70 230.43Q109.50 230.11 110.72 230.11Q112.68 230.11 113.59 230.94Q114.51 231.77 114.51 233.31L114.51 240L113.47 240L113.47 239.03M110.43 235.34Q107.94 235.34 107.94 237.31Q107.94 238.28 108.55 238.74Q109.16 239.21 110.49 239.21Q111.16 239.21 111.78 239.09Q112.40 238.97 112.93 238.46Q113.47 237.95 113.47 236.60L113.47 235.34L110.43 235.34ZM139.42 233.94Q139.42 232.52 138.75 231.77Q138.07 231.03 136.73 231.03Q135.45 231.03 134.71 231.75Q133.97 232.48 133.97 233.76L133.97 240L132.94 240L132.94 233.94Q132.94 232.52 132.26 231.77Q131.58 231.03 130.25 231.03Q128.91 231.03 128.20 231.78Q127.49 232.54 127.49 233.94L127.49 240L126.46 240L126.46 230.24L127.49 230.24L127.49 231.39Q128.59 230.11 130.39 230.11Q131.48 230.11 132.28 230.57Q133.08 231.03 133.53 231.90Q134.08 231.03 134.92 230.57Q135.76 230.11 136.85 230.11Q137.66 230.11 138.31 230.36Q138.96 230.60 139.42 231.05Q140.44 232.02 140.44 233.76L140.44 240L139.42 240L139.42 233.94ZM175.59 236.07Q175.59 237.04 175.28 237.77Q174.98 238.50 174.42 239.00Q173.87 239.49 173.09 239.75Q172.31 240 171.35 240L165.88 240L165.88 225.58L171.19 225.58Q172.08 225.58 172.85 225.83Q173.62 226.08 174.18 226.57Q174.74 227.05 175.05 227.75Q175.36 228.45 175.36 229.34Q175.36 230.50 174.77 231.37Q174.17 232.24 173.12 232.59Q174.29 232.99 174.94 233.89Q175.59 234.79 175.59 236.07M174.49 236.07Q174.49 234.67 173.60 233.89Q172.71 233.11 171.23 233.11L166.98 233.11L166.98 239.03L171.23 239.03Q172.71 239.03 173.60 238.25Q174.49 237.47 174.49 236.07M174.27 229.34Q174.27 228.59 174.02 228.07Q173.76 227.54 173.33 227.21Q172.89 226.87 172.31 226.71Q171.72 226.55 171.07 226.55L166.98 226.55L166.98 232.14L171.07 232.14Q171.72 232.14 172.31 231.98Q172.89 231.82 173.33 231.48Q173.76 231.15 174.02 230.62Q174.27 230.09 174.27 229.34ZM192.81 231.79Q192.36 231.35 191.97 231.19Q191.57 231.03 190.96 231.03Q190.34 231.03 189.85 231.27Q189.36 231.51 189.03 231.92Q188.70 232.32 188.52 232.86Q188.35 233.40 188.35 233.98L188.35 240L187.32 240L187.32 230.24L188.35 230.24L188.35 231.53Q188.78 230.84 189.56 230.48Q190.34 230.11 191.21 230.11Q191.92 230.11 192.47 230.32Q193.03 230.52 193.56 231.05L192.81 231.79L192.81 231.79ZM211.00 235.12Q211.00 236.17 210.78 237.22Q210.56 238.28 209.79 239.05Q208.71 240.12 207.07 240.12Q205.43 240.12 204.36 239.05Q203.59 238.28 203.36 237.22Q203.14 236.17 203.14 235.12Q203.14 234.06 203.36 233.01Q203.59 231.96 204.36 231.19Q205.43 230.11 207.07 230.11Q208.71 230.11 209.79 231.19Q210.56 231.96 210.78 233.01Q211.00 234.06 211.00 235.12M209.97 235.12Q209.97 234.69 209.95 234.25Q209.93 233.80 209.84 233.37Q209.74 232.93 209.57 232.54Q209.40 232.16 209.10 231.86Q208.27 231.03 207.07 231.03Q205.88 231.03 205.04 231.86Q204.74 232.16 204.57 232.54Q204.40 232.93 204.31 233.37Q204.21 233.80 204.19 234.25Q204.17 234.69 204.17 235.12Q204.17 235.54 204.19 235.99Q204.21 236.43 204.31 236.87Q204.40 237.31 204.57 237.69Q204.74 238.08 205.04 238.38Q205.88 239.21 207.07 239.21Q208.27 239.21 209.10 238.38Q209.40 238.08 209.57 237.69Q209.74 237.31 209.84 236.87Q209.93 236.43 209.95 235.99Q209.97 235.54 209.97 235.12ZM225.73 234.63L223.50 237.20L223.50 240L222.47 240L222.47 225.58L223.50 225.58L223.50 235.75L228.34 230.24L229.66 230.24L226.44 233.88L230.37 240L229.09 240L225.73 234.63ZM241.71 235.34Q241.71 237.22 242.51 238.21Q243.31 239.19 244.89 239.19Q245.77 239.19 246.36 238.92Q246.96 238.64 247.59 238.01L248.36 238.62Q247.99 238.99 247.62 239.27Q247.24 239.55 246.83 239.75Q246.41 239.94 245.93 240.03Q245.44 240.12 244.83 240.12Q242.81 240.12 241.74 238.85Q240.68 237.57 240.68 235.12Q240.68 232.73 241.71 231.42Q242.75 230.11 244.59 230.11Q246.43 230.11 247.47 231.36Q248.50 232.61 248.50 234.87L248.50 235.34L241.71 235.34M247.47 234.51Q247.45 234.17 247.43 233.91Q247.41 233.66 247.38 233.46Q247.35 233.25 247.29 233.07Q247.22 232.89 247.12 232.67Q246.80 231.90 246.12 231.46Q245.44 231.03 244.59 231.03Q243.74 231.03 243.06 231.46Q242.38 231.90 242.06 232.67Q241.98 232.91 241.92 233.09Q241.86 233.27 241.83 233.47Q241.79 233.66 241.76 233.90Q241.73 234.15 241.71 234.51L247.47 234.51ZM265.44 231.79Q264.99 231.35 264.60 231.19Q264.20 231.03 263.59 231.03Q262.97 231.03 262.48 231.27Q261.99 231.51 261.66 231.92Q261.32 232.32 261.15 232.86Q260.98 233.40 260.98 233.98L260.98 240L259.95 240L259.95 230.24L260.98 230.24L260.98 231.53Q261.41 230.84 262.19 230.48Q262.97 230.11 263.84 230.11Q264.55 230.11 265.10 230.32Q265.66 230.52 266.19 231.05L265.44 231.79L265.44 231.79Z" fill="#ffffff" style="fill: rgb(255, 255, 255);"></path></g><g id="SvgjsG1749" rel="mainfill" name="symbol" xmlns:name="symbol_mainfill" transform="translate(63.00027559131382,-6.979044644846768) scale(1.3958089289693536)" fill="#ffffff"><path d="M71.995,64.9c-0.022-0.229-0.125-0.444-0.288-0.607l-7-7c-0.07-0.07-0.156-0.114-0.24-0.16C65,48.794,65,39.415,65,31  C65,13.621,50.641,5.215,50.496,5.132c-0.308-0.176-0.685-0.176-0.992,0c-0.139,0.079-13.154,7.711-14.398,23.444  c-0.104,0.218-0.117,0.459-0.055,0.688C35.02,29.833,35,30.411,35,31c0,1.308,0,2.641,0.002,3.988c0,0.008,0,0.016,0,0.023  c0.004,1.921,0.011,3.874,0.027,5.837c-0.017,0.106-0.016,0.209,0.002,0.315c0.018,1.799,0.042,3.605,0.08,5.402  c-0.14,0.287-0.131,0.616,0.021,0.899c0.078,3.298,0.201,6.556,0.4,9.667c-0.084,0.046-0.17,0.09-0.24,0.16l-7,7  c-0.163,0.163-0.265,0.378-0.288,0.607l-2,20c-0.036,0.363,0.127,0.717,0.428,0.923C26.603,85.94,26.801,86,27,86  c0.153,0,0.306-0.035,0.447-0.105l12.631-6.315c0.788,10.348,9.066,15.089,9.436,15.295C49.666,94.958,49.832,95,50,95  s0.334-0.042,0.486-0.126c0.369-0.206,8.647-4.947,9.436-15.295l12.631,6.315C72.694,85.965,72.848,86,73,86  c0.199,0,0.397-0.06,0.567-0.177c0.3-0.206,0.464-0.56,0.428-0.923L71.995,64.9z M50,7.182C52.438,8.792,63,16.604,63,31  c0,16.415,0,38.775-4.533,46H49c0-0.256-0.098-0.512-0.293-0.707c-0.391-0.391-1.023-0.391-1.414,0L46.586,77h-3.172l3.293-3.293  c0.391-0.391,0.391-1.023,0-1.414s-1.023-0.391-1.414,0l-4.104,4.104c-0.377-0.701-0.719-1.517-1.031-2.428  c0.2-0.032,0.395-0.107,0.549-0.262l5-5c0.391-0.391,0.391-1.023,0-1.414s-1.023-0.391-1.414,0l-4.721,4.721  c-0.213-0.811-0.408-1.673-0.588-2.584l4.723-4.723c0.391-0.391,0.391-1.023,0-1.414s-1.023-0.391-1.414,0l-3.729,3.729  c-0.139-0.898-0.266-1.829-0.381-2.791l4.523-4.523c0.391-0.391,0.391-1.023,0-1.414s-1.023-0.391-1.414,0l-3.385,3.385  c-0.092-0.959-0.176-1.939-0.25-2.938c0.016-0.013,0.035-0.019,0.049-0.032l5-5c0.391-0.391,0.391-1.023,0-1.414  s-1.023-0.391-1.414,0l-3.809,3.809c-0.063-1.041-0.115-2.098-0.162-3.164c0.14-0.048,0.273-0.119,0.385-0.23l4-4  c0.391-0.391,0.391-1.023,0-1.414s-1.023-0.391-1.414,0l-3.07,3.07c-0.034-1.023-0.064-2.052-0.089-3.083l4.573-4.573  c0.391-0.391,0.391-1.023,0-1.414s-1.023-0.391-1.414,0l-3.215,3.215c-0.018-1.047-0.031-2.091-0.041-3.13l4.67-4.67  c0.391-0.391,0.391-1.023,0-1.414s-1.023-0.391-1.414,0l-3.278,3.278c-0.006-1.065-0.009-2.12-0.012-3.16l4.704-4.704  c0.391-0.391,0.391-1.023,0-1.414s-1.023-0.391-1.414,0L37,32.586c0-0.534,0-1.063,0-1.586c0-0.557,0.021-1.1,0.052-1.638  l4.655-4.655c0.391-0.391,0.391-1.023,0-1.414s-1.023-0.391-1.414,0l-2.876,2.876c0.271-1.55,0.661-3.003,1.142-4.363  c0.049-0.034,0.104-0.055,0.148-0.099l5-5c0.391-0.391,0.391-1.023,0-1.414s-1.023-0.391-1.414,0l-1.183,1.183  C44.357,11.2,48.572,8.125,50,7.182z M51.956,79c-0.163,2.002-0.815,3.852-1.956,5.518c-1.141-1.667-1.793-3.517-1.956-5.518H51.956  z M35.719,59.695c0.107,1.337,0.229,2.644,0.371,3.904c-0.141,0.319-0.094,0.688,0.117,0.979c0.674,5.502,1.727,10.103,3.365,13.018  l-9.508,4.754l3.643-3.643c0.391-0.391,0.391-1.023,0-1.414s-1.023-0.391-1.414,0l-3.908,3.908l0.352-3.524l4.97-4.97  c0.391-0.391,0.391-1.023,0-1.414s-1.023-0.391-1.414,0l-3.241,3.241l0.363-3.634c0.104-0.047,0.206-0.107,0.292-0.193l4-4  c0.391-0.391,0.391-1.023,0-1.414s-1.023-0.391-1.414,0l-2.575,2.574l0.241-2.412L35.719,59.695z M50.004,92.824  c-1.727-1.151-7.513-5.622-7.961-13.824h4.01c0.258,3.58,1.83,6.205,3.182,7.812c0.189,0.226,0.471,0.356,0.766,0.356  s0.575-0.131,0.766-0.356c1.352-1.606,2.924-4.229,3.182-7.812h4.01C57.516,87.271,51.76,91.674,50.004,92.824z M61.355,78.059  l4.352-4.352c0.391-0.391,0.391-1.023,0-1.414s-1.023-0.391-1.414,0l-2.699,2.699c0.467-1.298,0.873-2.77,1.221-4.393l4.893-4.893  c0.391-0.391,0.391-1.023,0-1.414s-1.023-0.391-1.414,0l-2.854,2.854c0.355-2.306,0.63-4.812,0.842-7.451l5.76,5.76l1.783,17.839  L61.355,78.059z" fill="#ffffff" style="fill: rgb(255, 255, 255);"></path><path d="M50,37c3.859,0,7-3.14,7-7s-3.141-7-7-7s-7,3.14-7,7S46.141,37,50,37z M50,25c2.757,0,5,2.243,5,5s-2.243,5-5,5  s-5-2.243-5-5S47.243,25,50,25z" fill="#ffffff" style="fill: rgb(255, 255, 255);"></path><path d="M50,40c-3.859,0-7,3.14-7,7c0,3.859,3.141,7,7,7s7-3.141,7-7C57,43.14,53.859,40,50,40z M50,52c-2.757,0-5-2.243-5-5  s2.243-5,5-5s5,2.243,5,5S52.757,52,50,52z" fill="#ffffff" style="fill: rgb(255, 255, 255);"></path></g></svg>